<svg xmlns="http://www.w3.org/2000/svg" viewBox="0 0 100 100" width="100" height="100" role="img" aria-labelledby="t">
  <title id="t">TessariDB S3</title>
  <rect x="8" y="8" width="58" height="58" rx="4" transform="rotate(-6 37 37)" fill="none" stroke="#7F77DD" stroke-width="2.5" opacity="0.8"/>
  <path fill="#7F77DD" opacity="0.42" fill-rule="evenodd" d="M25 21 H75 A4 4 0 0 1 79 25 V75 A4 4 0 0 1 75 79 H25 A4 4 0 0 1 21 75 V25 A4 4 0 0 1 25 21 Z M 45.73 42.42 L 79.00 45.33 L 79.00 56.37 L 69.67 55.55 L 67.62 79.00 L 55.58 79.00 L 57.72 54.51 L 44.77 53.37 Z"/>
  <g transform="rotate(5 63 63)">
    <path fill="#7F77DD" fill-rule="evenodd" d="M38 34 H88 A4 4 0 0 1 92 38 V88 A4 4 0 0 1 88 92 H38 A4 4 0 0 1 34 88 V38 A4 4 0 0 1 38 34 Z M44 44 H82 V55 H69 V82 H57 V55 H44 Z"/>
    <path fill="#3C3489" d="M76 68 H95 A5 5 0 0 1 100 73 V91 A5 5 0 0 1 95 96 H76 A5 5 0 0 1 71 91 V73 A5 5 0 0 1 76 68 Z"/>
    <path fill="none" stroke="#FFFFFF" stroke-width="2.6" stroke-linecap="round" stroke-linejoin="round" d="M83.4 76.6 C82.9 75.2 81.6 74.5 79.8 74.5 C77.4 74.5 76.1 75.7 76.1 77.6 C76.1 79.7 78 80.6 80 81.3 C82.3 82.1 83.9 83.1 83.9 85.6 C83.9 88 82.2 89.5 79.7 89.5 C77.6 89.5 76.1 88.6 75.5 87 M87.3 76.4 C87.9 75.1 89.1 74.5 90.8 74.5 C93.2 74.5 94.6 75.8 94.6 77.8 C94.6 79.8 93.1 81.2 90.8 81.2 H89.8 M90.8 81.2 C93.4 81.2 95.1 82.7 95.1 85.2 C95.1 87.8 93.3 89.5 90.7 89.5 C88.8 89.5 87.5 88.7 86.9 87.4"/>
  </g>
</svg>
